<svg width="200" height="41" viewBox="0 0 200 41" fill="none" xmlns="http://www.w3.org/2000/svg">
<path d="M53.525 32.7451V40.3778H49.0202V15.5301H53.525V16.7189C54.8667 15.7919 56.4297 15.2917 58.0299 15.2774C63.1454 15.2774 66.9069 19.5991 66.9069 24.7479C66.9069 29.8967 63.1804 34.2184 58.0299 34.2184C56.4228 34.2213 54.8525 33.7077 53.525 32.7451V32.7451ZM53.525 22.482V26.8755C53.8804 27.6795 54.4327 28.3673 55.124 28.8667C55.8153 29.3661 56.6202 29.6588 57.4545 29.7142C58.2888 29.7696 59.1218 29.5856 59.8662 29.1815C60.6106 28.7774 61.2391 28.1681 61.6859 27.4173C62.1327 26.6666 62.3813 25.802 62.4058 24.914C62.4302 24.0261 62.2296 23.1476 61.8249 22.3703C61.4201 21.5931 60.8262 20.9457 60.1053 20.4961C59.3844 20.0465 58.563 19.8111 57.7271 19.8145C56.8628 19.8016 56.0122 20.0442 55.2702 20.5152C54.5282 20.9862 53.924 21.6672 53.525 22.482V22.482Z" fill="white"/>
<path d="M69.347 10.5222C69.3323 10.1598 69.3875 9.79811 69.5092 9.45924C69.6309 9.12037 69.8165 8.81154 70.0547 8.55173C70.2928 8.29192 70.5785 8.08662 70.8941 7.94846C71.2097 7.8103 71.5485 7.7422 71.8898 7.74834C72.2358 7.74196 72.5794 7.80909 72.9007 7.9458C73.2219 8.08251 73.5142 8.28603 73.7604 8.54443C74.0066 8.80282 74.2017 9.11088 74.3343 9.45051C74.4669 9.79014 74.5343 10.1545 74.5326 10.5222C74.5254 11.2617 74.2436 11.9683 73.7487 12.4882C73.2538 13.0082 72.5857 13.2995 71.8898 13.2987C71.5504 13.2971 71.2147 13.2235 70.9023 13.0825C70.5899 12.9414 70.3071 12.7357 70.0704 12.4772C69.8337 12.2187 69.6478 11.9127 69.5236 11.577C69.3994 11.2414 69.3394 10.8828 69.347 10.5222ZM69.6198 15.5301H74.1948V33.9312H69.6198V15.5301Z" fill="white"/>
<path d="M76.9027 24.6788C76.8935 23.4403 77.1175 22.2123 77.5613 21.0671C78.0052 19.9219 78.66 18.8826 79.4872 18.0101C80.3145 17.1377 81.2976 16.4498 82.3786 15.9869C83.4596 15.524 84.6169 15.2955 85.7822 15.3147C87.3756 15.3155 88.9439 15.7358 90.3471 16.538V15.5301H94.8219V32.886C94.8219 37.6731 90.9227 40.2688 86.045 40.2688C82.8591 40.2688 79.8083 39.2609 77.8086 37.6093L79.6731 34.1892C81.5735 35.4829 83.7882 36.1586 86.045 36.1333C89.1959 36.1333 90.1794 34.8035 90.3146 32.6413C88.9573 33.5639 87.3833 34.0625 85.7722 34.0801C80.5866 34.0748 76.9027 29.9712 76.9027 24.6788ZM90.3471 26.7293V22.6256C89.9686 21.7694 89.3699 21.0444 88.6202 20.5343C87.8705 20.0242 87.0003 19.7498 86.1101 19.7427C85.4953 19.7364 84.8855 19.8593 84.3156 20.1042C83.7457 20.3492 83.227 20.7115 82.7893 21.1702C82.3516 21.6289 82.0036 22.175 81.7651 22.7771C81.5267 23.3792 81.4026 24.0255 81.4 24.6788C81.4 27.5218 83.4322 29.5031 86.0775 29.5031C86.9652 29.5277 87.8405 29.2789 88.5981 28.7867C89.3557 28.2945 89.9631 27.58 90.3471 26.7293V26.7293Z" fill="white"/>
<path d="M97.5373 24.6788C97.5282 23.4403 97.7521 22.2123 98.196 21.0671C98.6398 19.9219 99.2946 18.8826 100.122 18.0101C100.949 17.1377 101.932 16.4498 103.013 15.9869C104.094 15.524 105.252 15.2955 106.417 15.3147C108.014 15.3141 109.586 15.7344 110.992 16.538V15.5301H115.464V32.886C115.464 37.6731 111.567 40.2688 106.69 40.2688C103.504 40.2688 100.453 39.2609 98.4533 37.6093L100.318 34.1892C102.218 35.4834 104.433 36.1591 106.69 36.1333C109.841 36.1333 110.824 34.8035 110.959 32.6413C109.602 33.5635 108.028 34.0621 106.417 34.0801C101.231 34.0748 97.5373 29.9712 97.5373 24.6788ZM110.992 26.7293V22.6256C110.613 21.7696 110.014 21.0448 109.265 20.5347C108.515 20.0246 107.645 19.7501 106.755 19.7427C106.14 19.7364 105.53 19.8593 104.96 20.1042C104.39 20.3492 103.872 20.7115 103.434 21.1702C102.996 21.6289 102.648 22.175 102.41 22.7771C102.171 23.3792 102.047 24.0255 102.045 24.6788C102.045 27.5218 104.077 29.5031 106.722 29.5031C107.61 29.5274 108.485 29.2784 109.243 28.7863C110 28.2942 110.608 27.5798 110.992 26.7293Z" fill="white"/>
<path d="M122.036 15.5301L126.579 27.809L131.254 15.5301H136.009L126.035 40.3779H121.801L124.304 33.753L117.023 15.5301H122.036Z" fill="white"/>
<path d="M135.145 15.5301H139.99L144.405 27.9553L148.777 15.5301H153.533L146.585 33.9312H142.028L135.145 15.5301Z" fill="white"/>
<path d="M153.853 24.6043C153.853 19.4209 157.342 15.1338 162.797 15.1338C167.848 15.1338 171.685 19.1683 171.777 24.4687C171.812 24.9245 171.812 25.3825 171.777 25.8383H158.122C158.258 28.4313 160.595 30.1228 163.103 30.1228C165.17 30.1228 166.389 29.5111 167.813 28.2611L170.288 31.035C168.286 33.2663 166.284 34.3115 163.103 34.3115C157.242 34.2929 153.853 29.6467 153.853 24.6043ZM158.358 22.4075H167.102C166.662 20.6815 165.1 19.1683 162.73 19.1683C159.984 19.1683 158.833 20.6443 158.358 22.4075Z" fill="white"/>
<path d="M172.723 31.9525L174.938 28.1335C176.926 29.5415 179.256 30.3048 181.645 30.3302C183.918 30.3302 185.069 29.7186 185.069 28.676C185.069 27.9899 184.526 27.4872 183.375 27.2346L178.62 26.1548C175.131 25.357 173.537 23.599 173.537 20.7188C173.537 17.6577 175.977 15.0992 181.027 15.0992C184.075 15.0992 186.783 16.038 188.65 17.2614L186.583 20.9342C185.059 20.0699 183.027 19.1337 180.889 19.1337C178.96 19.1337 177.841 19.639 177.841 20.5725C177.841 21.1869 178.249 21.5831 179.365 21.7985L183.37 22.5964C187.707 23.4953 189.376 25.5484 189.376 28.3223C189.376 32.3116 185.622 34.4073 181.513 34.4073C178.425 34.4707 175.382 33.6208 172.723 31.9525V31.9525Z" fill="white"/>
<path d="M190.277 15.53H192.852V10.453L197.357 7.35736V15.53H200V19.7081H197.36V33.9338H192.855V19.7081H190.275V15.53H190.277Z" fill="white"/>
<path d="M37.7406 18.4901C37.6654 17.3221 37.4852 16.1643 37.2025 15.0327C35.9136 9.97968 33.1982 6.00372 29.0587 3.16602C26.4514 1.36408 23.4566 0.294398 20.3544 0.057059C19.0511 -0.0441013 17.7415 -0.00668249 16.4452 0.168758C15.0795 0.360842 13.7371 0.707666 12.4409 1.20331C8.98919 2.5264 5.97669 4.89275 3.77393 8.01128C1.57116 11.1298 0.274192 14.8645 0.0425457 18.7561C0 19.4715 0 20.1922 0 20.9103V38.3673C0 38.8208 0.169543 39.2558 0.471333 39.5765C0.773122 39.8972 1.18244 40.0773 1.60923 40.0773H7.95605C8.35324 40.0747 8.73572 39.9173 9.03096 39.635C9.32619 39.3526 9.51365 38.9649 9.55777 38.5455C9.59954 38.3815 9.62141 38.2126 9.62284 38.0428V37.6386C9.6191 37.6077 9.6191 37.5764 9.62284 37.5455V37.5003C9.66614 37.5125 9.70689 37.5332 9.74297 37.5614C12.117 38.9565 14.7462 39.791 17.4513 40.0082C18.5348 40.0933 19.6231 40.0818 20.7048 39.9736C23.2511 39.7244 25.7225 38.9238 27.9667 37.6212C30.2109 36.3186 32.1804 34.5414 33.7538 32.3993C35.9965 29.4014 37.3688 25.7741 37.703 21.9608C37.8162 20.8076 37.8288 19.6457 37.7406 18.4901ZM22.2739 29.6441C22.2628 29.7055 22.2315 29.7609 22.1857 29.8003C22.14 29.8397 22.0826 29.8606 22.0237 29.8595H15.7669C15.708 29.8606 15.6507 29.8397 15.6049 29.8003C15.5591 29.7609 15.5279 29.7055 15.5167 29.6441V29.6015V29.3542C15.5153 29.049 15.5472 28.7447 15.6118 28.4473C15.6518 28.3462 15.6769 28.2266 15.7169 28.1149C15.7569 28.0032 15.797 27.8994 15.837 27.7904C15.8771 27.6814 15.9421 27.583 15.9972 27.4899L16.0873 27.3463C16.1461 27.2533 16.2105 27.1645 16.28 27.0803C16.3526 26.9846 16.4252 26.9021 16.4977 26.8144C16.8743 26.4208 17.3318 26.1258 17.8342 25.9527C17.4014 25.7023 17.0594 25.306 16.8619 24.8263C16.6644 24.3465 16.6228 23.8106 16.7435 23.303C16.8642 22.7953 17.1405 22.3448 17.5287 22.0223C17.9169 21.6998 18.3951 21.5238 18.8878 21.5219C19.4761 21.5267 20.0393 21.7758 20.457 22.2161C20.6988 22.4747 20.8808 22.7893 20.9888 23.1354C21.0968 23.4814 21.1277 23.8493 21.0792 24.2102C21.0307 24.5711 20.904 24.9151 20.7092 25.2151C20.5144 25.5152 20.2567 25.7631 19.9565 25.9394C20.6323 26.1761 21.2204 26.6339 21.6366 27.2472C22.0528 27.8605 22.2759 28.598 22.2739 29.3542C22.2739 29.4499 22.2739 29.5537 22.2739 29.6441ZM33.0605 15.1604H4.7401C4.68701 15.16 4.63477 15.1462 4.58767 15.1202C4.54057 15.0942 4.49996 15.0567 4.46917 15.0107C4.43839 14.9648 4.41831 14.9117 4.41058 14.8559C4.40286 14.8001 4.40772 14.7431 4.42476 14.6897C5.48149 11.5073 7.44109 8.75159 10.0335 6.80237C12.6259 4.85315 15.7234 3.8064 18.8991 3.8064C22.0748 3.8064 25.1723 4.85315 27.7647 6.80237C30.357 8.75159 32.3166 11.5073 33.3734 14.6897C33.3903 14.7429 33.3952 14.7996 33.3876 14.8552C33.3801 14.9108 33.3602 14.9637 33.3297 15.0096C33.2992 15.0555 33.2589 15.0931 33.2121 15.1193C33.1654 15.1455 33.1134 15.1596 33.0605 15.1604Z" fill="white"/>
</svg>
